# xmcd CD database file
#
# Track frame offsets:
#	150
#	11680
#	29080
#	44240
#	66025
#	82012
#	93852
#	109967
#	123655
#	136750
#
# Disc length: 2067 seconds
#
# Revision: 0
# Processed by: cddbd v1.5.1PL0 Copyright (c) Steve Scherf et al.
# Submitted via: CDex 1.51
#
DISCID=8d08110a
DTITLE=Montana Sky - Montana Sky
DYEAR=1994
DGENRE=Country
TTITLE0=I Need A Love Like That
TTITLE1=She Showed Me
TTITLE2=So Deep In Love
TTITLE3=All The Love I Can Give
TTITLE4=Rescue Me
TTITLE5=Sweet Honkytonkin' Woman
TTITLE6=Long Long Way To Go
TTITLE7=Head On The Table
TTITLE8=Put Your Hands On Me
TTITLE9=California Cowboy
EXTD=YEAR: 1994
EXTT0=
EXTT1=
EXTT2=
EXTT3=
EXTT4=
EXTT5=
EXTT6=
EXTT7=
EXTT8=
EXTT9=
PLAYORDER=
